<?xml version="1.0"?>
<svg xmlns="http://www.w3.org/2000/svg" xmlns:xlink="http://www.w3.org/1999/xlink" version="1.1" id="Capa_1" x="0px" y="0px" viewBox="0 0 511.998 511.998" style="enable-background:new 0 0 511.998 511.998;" xml:space="preserve" width="220px" height="220px"><g transform="matrix(0.470587 0 0 0.470587 135.529 135.529)"><g>
	<g>
		<path d="M438.047,355.213c-5.508,0-10.001,4.492-10.001,10s4.493,10,10.001,10c5.507,0,10-4.492,10-10    S443.553,355.213,438.047,355.213z" data-original="#000000" class="active-path" data-old_color="#FFFDFD" fill="#FFFEFE"/>
	</g>
</g><g>
	<g>
		<path d="M511.973,221.755c-0.385-26.344-21.934-47.657-48.369-47.657h-19.923c-3.587-15.819-12.004-30.253-24.244-41.325    c-14.623-13.229-33.479-20.514-53.092-20.514h-11.081c-43.723,0-79.293,35.57-79.293,79.293v30.919    c0,0.139,0.016,0.274,0.02,0.412c0.005,0.116,0,0.232,0.009,0.35l19.777,259.043c0.003,0.042,0.012,0.082,0.016,0.123    c0.015,0.171,0.039,0.338,0.063,0.506c0.022,0.158,0.043,0.316,0.072,0.472c0.031,0.163,0.07,0.324,0.108,0.485    c0.038,0.156,0.076,0.314,0.121,0.468c0.044,0.149,0.094,0.295,0.144,0.44c0.056,0.162,0.112,0.322,0.176,0.48    c0.054,0.133,0.112,0.263,0.171,0.393c0.074,0.163,0.15,0.325,0.232,0.483c0.063,0.119,0.128,0.235,0.194,0.352    c0.092,0.16,0.186,0.318,0.287,0.473c0.071,0.108,0.144,0.215,0.219,0.32c0.106,0.152,0.218,0.301,0.333,0.446    c0.08,0.102,0.162,0.201,0.247,0.3c0.119,0.139,0.242,0.273,0.369,0.406c0.091,0.096,0.184,0.189,0.278,0.281    c0.129,0.125,0.262,0.244,0.397,0.361c0.103,0.089,0.206,0.178,0.313,0.264c0.137,0.108,0.277,0.211,0.42,0.313    c0.113,0.082,0.228,0.164,0.345,0.241c0.146,0.095,0.294,0.183,0.444,0.27c0.122,0.071,0.242,0.144,0.368,0.21    c0.156,0.082,0.318,0.156,0.48,0.23c0.125,0.058,0.247,0.117,0.375,0.17c0.176,0.072,0.356,0.135,0.537,0.197    c0.119,0.041,0.235,0.086,0.357,0.123c0.21,0.064,0.425,0.114,0.64,0.164c0.097,0.022,0.191,0.051,0.289,0.07    c0.278,0.056,0.561,0.098,0.847,0.129c0.039,0.005,0.077,0.014,0.116,0.018c0.331,0.033,0.665,0.052,1.003,0.052    c0.008,0,0.017-0.001,0.025-0.001h174.565c0.325,0,0.646-0.018,0.962-0.049c0.051,0.005,0.1,0.016,0.151,0.02    c5.492,0.438,10.311-3.703,10.731-9.209l19.738-258.545c0.053-0.414,0.089-0.833,0.089-1.261    C511.998,222.231,511.989,221.991,511.973,221.755z M295.97,212.471v-20.919c0-32.695,26.6-59.294,59.294-59.294h11.082    c26.493,0,49.172,17.351,56.668,41.84h-27.149c-5.522,0-10,4.477-10,10c0,5.522,4.478,10,10,10h67.739    c12.127,0,22.503,7.648,26.556,18.374H295.97z M472.937,471.515H315.013l-13.011-170.418h183.945L472.937,471.515z     M487.473,281.097H300.476l-3.713-48.627h194.423L487.473,281.097z" data-original="#000000" class="active-path" data-old_color="#FFFDFD" fill="#FFFEFE"/>
	</g>
</g><g>
	<g>
		<path d="M364.933,174.098h-0.505c-5.522,0-10,4.477-10,10c0,5.522,4.478,10,10,10h0.505c5.522,0,10-4.478,10-10    C374.932,178.575,370.455,174.098,364.933,174.098z" data-original="#000000" class="active-path" data-old_color="#FFFDFD" fill="#FFFEFE"/>
	</g>
</g><g>
	<g>
		<circle cx="81.545" cy="256.966" r="9.997" data-original="#000000" class="active-path" data-old_color="#FFFDFD" fill="#FFFEFE"/>
	</g>
</g><g>
	<g>
		<path d="M87.448,368.179l-0.49-0.125c-5.354-1.37-10.795,1.868-12.16,7.219c-1.364,5.352,1.868,10.795,7.219,12.159l0.49,0.125    c0.829,0.212,1.66,0.313,2.478,0.313c4.462,0,8.529-3.009,9.683-7.531C96.031,374.987,92.799,369.543,87.448,368.179z" data-original="#000000" class="active-path" data-old_color="#FFFDFD" fill="#FFFEFE"/>
	</g>
</g><g>
	<g>
		<path d="M224.309,32.338l-10.738-2.74c-6.388-1.631-12.95-2.457-19.505-2.457c-29.916,0-57.298,17.056-70.717,43.25l-19.307-4.928    c-3.898-0.995-7.904-1.499-11.906-1.499c-22.054,0-41.267,14.83-46.843,36.102c-0.008,0.029-0.016,0.058-0.024,0.087    c-0.019,0.074-0.042,0.146-0.06,0.219c-0.033,0.129-0.051,0.258-0.078,0.387c-0.025,0.12-0.061,0.236-0.082,0.357L0.152,357.005    c-0.955,5.44,2.682,10.624,8.122,11.578c0.052,0.009,0.103,0.011,0.155,0.02c0.298,0.106,0.602,0.203,0.915,0.283l42.701,10.898    c0.83,0.212,1.661,0.313,2.48,0.313c4.461,0,8.528-3.008,9.682-7.529c1.366-5.351-1.865-10.796-7.217-12.161l-35.538-9.07    l29.537-168.343l178.232,45.488l-54.75,161.909l-33.724-8.608c-5.349-1.363-10.796,1.866-12.162,7.216    c-1.366,5.352,1.865,10.797,7.216,12.162l42.701,10.899c0.008,0.002,0.017,0.003,0.025,0.005c0.371,0.094,0.742,0.16,1.113,0.211    c0.075,0.01,0.15,0.018,0.226,0.027c0.371,0.042,0.742,0.07,1.11,0.07c0.273,0,0.545-0.013,0.815-0.035    c0.077-0.006,0.152-0.019,0.229-0.026c0.188-0.021,0.374-0.041,0.559-0.071c0.107-0.017,0.212-0.042,0.317-0.063    c0.154-0.03,0.308-0.06,0.46-0.097c0.113-0.027,0.224-0.063,0.336-0.094c0.143-0.04,0.285-0.08,0.425-0.127    c0.112-0.037,0.222-0.079,0.332-0.12c0.138-0.052,0.275-0.103,0.411-0.16c0.106-0.045,0.21-0.094,0.314-0.142    c0.136-0.064,0.272-0.128,0.405-0.197c0.099-0.052,0.196-0.106,0.294-0.16c0.134-0.076,0.267-0.153,0.398-0.235    c0.092-0.057,0.182-0.116,0.271-0.176c0.132-0.088,0.261-0.179,0.389-0.273c0.084-0.063,0.168-0.126,0.25-0.191    c0.126-0.1,0.249-0.202,0.37-0.309c0.079-0.068,0.157-0.138,0.234-0.209c0.117-0.108,0.23-0.222,0.343-0.337    c0.075-0.076,0.15-0.152,0.223-0.232c0.105-0.114,0.206-0.233,0.306-0.354c0.073-0.088,0.147-0.174,0.217-0.265    c0.091-0.117,0.177-0.239,0.263-0.36c0.071-0.1,0.143-0.2,0.21-0.303c0.076-0.117,0.147-0.237,0.218-0.357    c0.068-0.115,0.139-0.23,0.203-0.35c0.062-0.113,0.117-0.231,0.174-0.349c0.064-0.13,0.13-0.259,0.188-0.393    c0.052-0.118,0.097-0.241,0.145-0.363c0.053-0.136,0.109-0.27,0.157-0.408c0.005-0.016,0.011-0.028,0.016-0.043l83.186-246.002    c0.002-0.007,0.004-0.013,0.007-0.019l0.029-0.088c0.018-0.055,0.029-0.109,0.046-0.164c0.06-0.188,0.122-0.373,0.171-0.566    l7.647-29.959C292.343,86.413,266.674,43.15,224.309,32.338z M235.644,209.48L54.453,163.236l8.428-48.034l94.193,24.04    l94.193,24.04L235.644,209.48z M262.152,123.831l-5.173,20.269L68.821,96.077c5.2-7.428,13.807-12.114,23.314-12.114    c2.336,0,4.679,0.295,6.961,0.878l65.635,16.751c0.83,0.212,1.661,0.313,2.48,0.313c4.461,0,8.528-3.008,9.682-7.529    c1.366-5.352-1.865-10.795-7.217-12.161l-26.278-6.707c10.65-17.319,29.837-28.368,50.668-28.368c4.889,0,9.787,0.618,14.56,1.836    l10.738,2.74C251.043,59.801,270.237,92.152,262.152,123.831z" data-original="#000000" class="active-path" data-old_color="#FFFDFD" fill="#FFFEFE"/>
	</g>
</g><g>
	<g>
		<path d="M331.968,36.247c-4.703-2.897-10.864-1.432-13.758,3.271l-10.134,16.454c-2.895,4.703-1.43,10.862,3.272,13.758    c1.635,1.007,3.446,1.486,5.234,1.486c3.356,0,6.636-1.689,8.524-4.757l10.134-16.454    C338.135,45.303,336.671,39.143,331.968,36.247z" data-original="#000000" class="active-path" data-old_color="#FFFDFD" fill="#FFFEFE"/>
	</g>
</g><g>
	<g>
		<path d="M364.878,66.804c-3.238-4.476-9.489-5.477-13.963-2.243l-15.658,11.323c-4.474,3.235-5.479,9.487-2.243,13.962    c1.956,2.704,5.012,4.141,8.111,4.141c2.031,0,4.081-0.617,5.853-1.897l15.658-11.323C367.11,77.532,368.115,71.28,364.878,66.804    z" data-original="#000000" class="active-path" data-old_color="#FFFDFD" fill="#FFFEFE"/>
	</g>
</g><g>
	<g>
		<path d="M289.873,20.611c-5.448-0.886-10.584,2.833-11.458,8.287l-3.065,19.081c-0.877,5.453,2.833,10.583,8.286,11.458    c0.537,0.087,1.071,0.129,1.598,0.129c4.824,0,9.072-3.5,9.861-8.416l3.066-19.081C299.036,26.617,295.326,21.487,289.873,20.611z    " data-original="#000000" class="active-path" data-old_color="#FFFDFD" fill="#FFFEFE"/>
	</g>
</g></g> </svg>
